Coordinates
version=1
nRows=32
nColumns=12
inDegrees=yes

Units are S.I. units (second, meters, Newtons, ...)
Angles are in degrees

endheader
time	SC_y	SC_z	SC_x	AC_y	AC_z	AC_x	GH_y	GH_z	GH_yy	EL_x	PS_y
       0.0              -57.14          28.64          13.87          68.87         -13.81          11.77         -25.16          82.43         -117.7          67.36           75.8
    0.0373              -57.14          28.63          13.88          68.87          -13.8          11.77         -25.13          82.42         -117.7          67.36           75.8
    0.0746              -57.14          28.63          13.88          68.86          -13.8          11.77          -25.1          82.41         -117.7          67.37          75.81
    0.1119              -57.14          28.63          13.88          68.86         -13.79          11.77         -25.07          82.39         -117.7          67.37          75.82
    0.1492              -57.14          28.63          13.88          68.85         -13.79          11.77         -25.04          82.38         -117.7          67.37          75.83
    0.1865              -57.13          28.63          13.88          68.85         -13.79          11.77          -25.0          82.37         -117.7          67.37          75.83
    0.2238              -57.13          28.63          13.88          68.84         -13.78          11.77         -24.96          82.36         -117.6          67.37          75.84
    0.2611              -57.13          28.63          13.89          68.83         -13.78          11.77         -24.92          82.34         -117.6          67.37          75.85
    0.2984              -57.13          28.62          13.89          68.82         -13.77          11.77         -24.88          82.33         -117.6          67.37          75.86
    0.3357              -57.13          28.62          13.89          68.82         -13.77          11.77         -24.83          82.31         -117.6          67.37          75.87
     0.373              -57.13          28.62           13.9          68.81         -13.76          11.76         -24.78          82.29         -117.6          67.38          75.88
    0.4103              -57.12          28.62           13.9           68.8         -13.75          11.76         -24.72          82.27         -117.5          67.38          75.89
    0.4476              -57.12          28.61           13.9          68.79         -13.75          11.76         -24.67          82.25         -117.5          67.38          75.91
    0.4849              -57.12          28.61           13.9          68.78         -13.74          11.76          -24.6          82.23         -117.5          67.38          75.92
    0.5222              -57.12          28.61          13.91          68.76         -13.73          11.76         -24.53           82.2         -117.5          67.38          75.93
    0.5595              -57.11          28.61          13.91          68.75         -13.72          11.76         -24.46          82.17         -117.4          67.39          75.95
    0.5968              -57.11           28.6          13.92          68.74         -13.71          11.76         -24.38          82.14         -117.4          67.39          75.97
    0.6341              -57.11           28.6          13.92          68.72          -13.7          11.75         -24.29          82.11         -117.4          67.39          75.99
    0.6714               -57.1          28.59          13.93           68.7         -13.69          11.75         -24.19          82.08         -117.3          67.39          76.01
    0.7087               -57.1          28.59          13.93          68.69         -13.67          11.75         -24.09          82.04         -117.3           67.4          76.03
     0.746              -57.09          28.58          13.94          68.66         -13.66          11.75         -23.97           82.0         -117.2           67.4          76.06
    0.7833              -57.09          28.58          13.95          68.64         -13.64          11.74         -23.84          81.95         -117.2           67.4          76.08
    0.8206              -57.08          28.57          13.95          68.62         -13.63          11.74          -23.7           81.9         -117.1          67.41          76.11
    0.8579              -57.08          28.56          13.96          68.59         -13.61          11.74         -23.55          81.84         -117.1          67.41          76.15
    0.8952              -57.07          28.56          13.97          68.56         -13.59          11.73         -23.37          81.78         -117.0          67.42          76.19
    0.9325              -57.06          28.55          13.98          68.53         -13.56          11.73         -23.18          81.71         -116.9          67.42          76.23
    0.9698              -57.06          28.54           14.0          68.49         -13.54          11.72         -22.96          81.63         -116.8          67.43          76.28
     1.007              -57.05          28.53          14.01          68.44         -13.51          11.72         -22.72          81.54         -116.7          67.44          76.33
     1.044              -57.04          28.52          14.02           68.4         -13.47          11.71         -22.44          81.45         -116.6          67.45          76.39
     1.082              -57.02           28.5          14.04          68.34         -13.43           11.7         -22.13          81.33         -116.5          67.46          76.46
     1.119              -57.01          28.49          14.06          68.28         -13.39           11.7         -21.77           81.2         -116.4          67.47          76.53
     1.156              -56.99          28.47          14.08          68.21         -13.34          11.69         -21.36          81.05         -116.2          67.48          76.62
